<svg width="155" height="30" viewBox="0 0 155 30" fill="none" xmlns="http://www.w3.org/2000/svg">
<path d="M0.58 30V7.65H6.37L9.91 17.31C10.36 18.6 10.72 20.01 11.14 21.36H11.29C11.74 20.01 12.1 18.6 12.52 17.31L15.94 7.65H21.76V30H16.87V22.35C16.87 20.13 17.29 16.8 17.59 14.61H17.44L15.58 19.95L12.58 28.11H9.64L6.61 19.95L4.81 14.61H4.69C4.96 16.8 5.38 20.13 5.38 22.35V30H0.58ZM23.4686 30L30.3986 7.65H36.8186L43.7486 30H38.1086L35.3186 18.84C34.7186 16.62 34.1486 13.95 33.5486 11.67H33.4286C32.8886 14.01 32.2886 16.62 31.7186 18.84L28.9286 30H23.4686ZM28.1786 24.87V20.73H38.9786V24.87H28.1786ZM45.4933 30V7.65H53.6833C58.4533 7.65 62.4133 9.3 62.4133 14.7C62.4133 19.95 58.4533 22.14 53.6833 22.14H50.8633V30H45.4933ZM50.8633 17.91H53.2633C55.8133 17.91 57.1933 16.8 57.1933 14.7C57.1933 12.6 55.8133 11.91 53.2633 11.91H50.8633V17.91ZM57.5533 30L52.7233 20.76L56.3533 17.25L63.5533 30H57.5533ZM66.1335 30V7.65H71.5035V16.5H71.5935L77.9235 7.65H83.8035L77.0535 16.62L85.0635 30H79.2135L73.9335 20.85L71.5035 24.15V30H66.1335ZM86.7737 30V7.65H100.934V12.12H92.1437V16.26H99.6137V20.76H92.1437V25.5H101.264V30H86.7737ZM109.39 30V12.12H103.36V7.65H120.82V12.12H114.76V30H109.39ZM131.192 30V0.199997H141.592C147.752 0.199997 152.672 1.88 152.672 7.6C152.672 10.24 151.192 13.12 148.792 14.04V14.2C151.792 15 154.072 17.24 154.072 21.2C154.072 27.28 148.912 30 142.432 30H131.192ZM138.352 12.04H141.312C144.352 12.04 145.712 10.72 145.712 8.68C145.712 6.56 144.312 5.68 141.312 5.68H138.352V12.04ZM138.352 24.52H141.912C145.352 24.52 147.112 23.28 147.112 20.72C147.112 18.28 145.392 17.28 141.912 17.28H138.352V24.52Z" fill="black"/>
</svg>
